<?xml version="1.0" standalone="no"?>
<!DOCTYPE svg PUBLIC "-//W3C//DTD SVG 20010904//EN"
 "http://www.w3.org/TR/2001/REC-SVG-20010904/DTD/svg10.dtd">
<svg version="1.0" xmlns="http://www.w3.org/2000/svg"
 width="700.000000pt" height="700.000000pt" viewBox="0 0 700.000000 700.000000"
 preserveAspectRatio="xMidYMid meet">
<metadata>
Created by potrace 1.11, written by Peter Selinger 2001-2013
</metadata>
<g transform="translate(0.000000,700.000000) scale(0.100000,-0.100000)"
fill="#000000" stroke="none">
<path d="M3810 6854 c-404 -78 -561 -584 -270 -875 71 -71 126 -105 210 -132
262 -82 553 82 627 353 72 264 -68 538 -321 632 -50 18 -196 31 -246 22z"/>
<path d="M1497 5726 c-242 -87 -240 -445 3 -531 37 -13 137 -15 723 -15 374 1
681 -1 683 -2 1 -2 -33 -68 -78 -148 -44 -80 -93 -170 -110 -200 -16 -30 -100
-182 -185 -337 -172 -313 -203 -390 -208 -521 -7 -138 25 -254 99 -364 49 -73
50 -74 465 -497 539 -549 562 -573 552 -585 -5 -6 -23 -38 -41 -71 -18 -33
-86 -154 -150 -270 -64 -115 -131 -237 -149 -270 -18 -33 -59 -107 -92 -165
-32 -58 -63 -130 -70 -159 -32 -148 39 -296 176 -369 43 -23 62 -27 135 -27
68 0 95 5 134 23 46 22 146 113 146 132 0 5 13 31 28 57 16 26 49 86 74 133
25 47 57 105 70 130 14 25 39 70 55 100 151 274 215 391 266 485 64 118 90
165 142 260 98 177 91 367 -19 514 -20 27 -706 732 -788 810 -16 16 6 59 349
676 201 363 367 661 368 662 1 2 357 3 793 3 903 1 846 -5 932 86 132 140 93
361 -79 449 l-50 25 -2068 -1 c-1704 0 -2075 -2 -2106 -13z"/>
<path d="M2346 3354 c-14 -26 -26 -49 -26 -52 0 -3 -6 -13 -14 -21 -7 -9 -27
-41 -43 -71 -17 -30 -80 -140 -140 -245 -60 -104 -171 -296 -245 -425 -75
-129 -186 -323 -248 -430 -62 -107 -124 -216 -139 -241 -28 -49 -214 -372
-269 -467 -79 -136 -96 -183 -98 -262 -2 -84 13 -133 62 -203 111 -157 344
-176 479 -40 24 25 97 142 185 298 80 141 158 280 174 309 230 405 316 560
316 567 0 5 5 9 10 9 6 0 10 4 10 9 0 5 28 58 62 118 64 113 78 138 120 213
14 25 82 146 152 269 70 123 130 230 133 237 3 9 -56 76 -150 171 -85 87 -186
191 -224 231 -38 39 -72 72 -75 72 -4 0 -18 -21 -32 -46z"/>
<path d="M2180 962 c-53 -26 -83 -77 -77 -131 6 -52 32 -90 78 -113 32 -17
112 -18 1254 -18 1200 0 1221 0 1253 20 97 59 92 191 -9 242 -32 17 -112 18
-1249 18 -1137 0 -1217 -1 -1250 -18z"/>
<path d="M4156 524 c-69 -25 -112 -83 -121 -164 -6 -48 -3 -62 22 -110 23 -45
37 -60 79 -81 81 -41 153 -30 216 34 59 59 74 151 36 227 -43 84 -146 126
-232 94z"/>
<path d="M2611 515 c-108 -49 -146 -195 -76 -295 37 -53 79 -74 151 -75 49 0
68 5 102 28 113 74 115 243 4 321 -50 36 -129 45 -181 21z"/>
</g>
</svg>
